<svg height="504pt" viewBox="-35 0 504 504.65972" width="504pt" xmlns="http://www.w3.org/2000/svg"><path d="m251.863281 73.710938c15.164063-18.296876 13.484375-45.234376-3.835937-61.507813-17.320313-16.269531-44.308594-16.269531-61.628906 0-17.316407 16.273437-18.996094 43.210937-3.835938 61.507813-118.234375 19.152343-198.5625 130.527343-179.410156 248.761718 7.28125 44.953125 28.527344 86.472656 60.726562 118.671875 84.683594 84.6875 221.984375 84.6875 306.671875 0 84.683594-84.683593 84.683594-221.984375 0-306.671875-32.132812-32.304687-73.691406-53.582031-118.6875-60.761718zm-34.648437-53.675782c13.804687 0 25 11.191406 25 25 0 13.804688-11.195313 25-25 25-13.808594 0-25-11.195312-25-25 0-13.808594 11.191406-25 25-25zm0 464.621094c-108.542969 0-196.851563-88.304688-196.851563-196.847656 0-108.542969 88.308594-196.851563 196.851563-196.851563 108.542968 0 196.847656 88.308594 196.847656 196.851563 0 108.542968-88.304688 196.847656-196.847656 196.847656zm0 0"/><path d="m351.730469 287.347656c0 5.519532 4.476562 10 10 10h39.050781c5.523438 0 10-4.480468 10-10 0-5.523437-4.476562-10-10-10h-39.050781c-5.523438 0-10 4.476563-10 10zm0 0"/><path d="m86.246094 287.347656c0-5.523437-4.476563-10-10-10h-39.046875c-5.523438 0-10 4.476563-10 10 0 5.519532 4.476562 10 10 10h39.046875c5.523437 0 10-4.480468 10-10zm0 0"/><path d="m217.214844 155.066406c5.523437 0 10-4.476562 10-10v-39.050781c0-5.523437-4.476563-10-10-10-5.523438 0-10 4.476563-10 10v39.050781c0 5.523438 4.476562 10 10 10zm0 0"/><path d="m219.214844 420.546875c-5.523438 0-10 4.476563-10 10v39.050781c0 5.519532 4.476562 10 10 10 5.523437 0 10-4.480468 10-10v-39.050781c0-5.523437-4.476563-10-10-10zm0 0"/><path d="m228.300781 175.117188c-1.5-3.832032-5.195312-6.355469-9.3125-6.355469-4.117187 0-7.8125 2.523437-9.3125 6.355469l-42.664062 109.046874c-.914063 2.34375-.914063 4.945313 0 7.289063l42.667969 109.042969c1.5 3.835937 5.195312 6.359375 9.3125 6.359375 4.117187 0 7.8125-2.523438 9.3125-6.359375l42.667968-109.042969c.917969-2.34375.917969-4.945313 0-7.289063zm-9.3125 30.628906 28.015625 71.601562h-56.03125zm0 163.199218-28.015625-71.597656h56.03125zm0 0"/><path d="m326.992188 381.671875c-3.90625-3.8125-10.144532-3.785156-14.019532.058594-3.875 3.839843-3.957031 10.082031-.179687 14.019531l.0625.0625 27.609375 27.613281c3.902344 3.90625 10.234375 3.90625 14.140625 0s3.90625-10.234375 0-14.140625zm0 0"/><path d="m97.511719 152.191406c-3.902344-3.90625-10.234375-3.90625-14.140625 0s-3.90625 10.238282 0 14.140625l27.613281 27.613281c3.90625 3.90625 10.238281 3.90625 14.144531 0 3.902344-3.90625 3.902344-10.238281-.003906-14.140624zm0 0"/><path d="m340.464844 152.191406-27.613282 27.613282c-2.597656 2.5-3.648437 6.210937-2.746093 9.703124.902343 3.492188 3.617187 6.230469 7.101562 7.160157 3.484375.929687 7.203125-.085938 9.726563-2.664063l.058594-.0625 27.613281-27.613281c3.90625-3.902344 3.90625-10.234375 0-14.140625s-10.238281-3.90625-14.140625 0zm0 0"/><path d="m110.984375 381.671875-27.613281 27.613281c-3.875 3.910156-3.863282 10.214844.03125 14.109375 3.894531 3.894531 10.199218 3.90625 14.109375.03125l27.613281-27.613281c3.808594-3.90625 3.785156-10.148438-.058594-14.023438s-10.082031-3.953124-14.019531-.175781l-.0625.0625zm0 0"/></svg>