<svg height="672" viewBox="-35 0 504 504.66" width="672" xmlns="http://www.w3.org/2000/svg"><path d="M251.863 73.71c15.164-18.296 13.485-45.233-3.836-61.507-17.32-16.27-44.308-16.27-61.629 0-17.316 16.274-18.996 43.211-3.835 61.508C64.328 92.863-16 204.238 3.153 322.473a216.863 216.863 0 0060.726 118.672c84.684 84.687 221.984 84.687 306.672 0 84.683-84.684 84.683-221.985 0-306.672A215.246 215.246 0 00251.863 73.71zm-34.648-53.675c13.805 0 25 11.192 25 25 0 13.805-11.195 25-25 25-13.809 0-25-11.195-25-25 0-13.808 11.191-25 25-25zm0 464.621c-108.543 0-196.852-88.304-196.852-196.847S108.672 90.957 217.215 90.957s196.847 88.309 196.847 196.852-88.304 196.847-196.847 196.847zm0 0"/><path d="M351.73 287.348c0 5.52 4.477 10 10 10h39.051c5.524 0 10-4.48 10-10 0-5.524-4.476-10-10-10h-39.05c-5.524 0-10 4.476-10 10zm-265.484 0c0-5.524-4.476-10-10-10H37.2c-5.523 0-10 4.476-10 10 0 5.52 4.477 10 10 10h39.047c5.524 0 10-4.48 10-10zm130.969-132.282c5.523 0 10-4.476 10-10v-39.05c0-5.524-4.477-10-10-10-5.524 0-10 4.476-10 10v39.05c0 5.524 4.476 10 10 10zm2 265.481c-5.524 0-10 4.476-10 10v39.05c0 5.52 4.476 10 10 10 5.523 0 10-4.48 10-10v-39.05c0-5.524-4.477-10-10-10zm9.085-245.43a10 10 0 00-18.624 0l-42.664 109.047a10.03 10.03 0 000 7.29l42.668 109.042a9.999 9.999 0 0018.625 0l42.668-109.043a9.99 9.99 0 000-7.289zm-9.312 30.63l28.016 71.6h-56.031zm0 163.198l-28.015-71.597h56.03zm108.004 12.727c-3.906-3.813-10.144-3.785-14.02.058-3.874 3.84-3.956 10.083-.179 14.02l.062.063 27.61 27.613c3.902 3.906 10.234 3.906 14.14 0s3.907-10.235 0-14.14zM97.512 152.191c-3.903-3.906-10.235-3.906-14.14 0s-3.907 10.239 0 14.141l27.612 27.613c3.907 3.907 10.239 3.907 14.145 0 3.902-3.906 3.902-10.238-.004-14.14zm242.953 0l-27.613 27.614a10 10 0 1014.082 14.199l.058-.063 27.613-27.613c3.907-3.902 3.907-10.234 0-14.14s-10.238-3.907-14.14 0zM110.984 381.672l-27.613 27.613a9.999 9.999 0 00.031 14.11 9.998 9.998 0 0014.11.03l27.613-27.612c3.809-3.907 3.785-10.149-.059-14.024s-10.082-3.953-14.02-.176l-.062.063zm0 0"/></svg>