<svg aria-hidden="true" style="position:absolute;width:0;height:0" xmlns="http://www.w3.org/2000/svg" overflow="hidden"><defs><symbol id="compass" viewBox="0 0 32 32"><path d="M18.211 4.674a2.853 2.853 0 10-4.394 0C6.32 5.888 1.226 12.951 2.441 20.448a13.755 13.755 0 003.851 7.525c5.37 5.37 14.076 5.37 19.446 0s5.37-14.076 0-19.446a13.652 13.652 0 00-7.526-3.853zM16.014 1.27a1.585 1.585 0 11-.001 3.171 1.585 1.585 0 01.001-3.171zm0 29.462c-6.883 0-12.482-5.599-12.482-12.482s5.6-12.482 12.482-12.482c6.883 0 12.482 5.6 12.482 12.482s-5.599 12.482-12.482 12.482z"/><path d="M24.543 18.22c0 .35.284.634.634.634h2.476a.634.634 0 000-1.268h-2.476a.634.634 0 00-.634.634zm-16.834 0a.634.634 0 00-.634-.634H4.599a.634.634 0 000 1.268h2.476c.35 0 .634-.284.634-.634zm8.305-8.387c.35 0 .634-.284.634-.634V6.723a.634.634 0 00-1.268 0v2.476c0 .35.284.634.634.634zm.126 16.833a.634.634 0 00-.634.634v2.476a.634.634 0 001.268 0V27.3a.634.634 0 00-.634-.634zm.577-15.562a.633.633 0 00-1.181 0l-2.705 6.915a.635.635 0 000 .462l2.706 6.914a.633.633 0 001.18 0l2.706-6.914a.635.635 0 000-.462zm-.591 1.942l1.776 4.54h-3.553zm0 10.348l-1.776-4.54h3.553zm6.848.807a.633.633 0 00-.9.893l1.755 1.755a.634.634 0 10.897-.897zM8.423 9.65a.634.634 0 10-.897.897l1.751 1.751a.634.634 0 10.897-.897zm15.406 0l-1.751 1.751a.634.634 0 10.893.9l.004-.004 1.751-1.751a.634.634 0 10-.897-.897zM9.278 24.201l-1.751 1.751a.634.634 0 00.897.897l1.751-1.751a.633.633 0 00-.893-.9l-.004.004z"/></symbol><symbol id="world" viewBox="0 0 32 32"><path d="M16 0C7.164 0 0 7.164 0 16s7.164 16 16 16 16-7.164 16-16C31.99 7.168 24.832.01 16 0zm13.838 21.605l-4.55.785c.521-1.91.802-3.878.837-5.857h4.795a14.85 14.85 0 01-1.082 5.072zM1.08 16.533h4.795c.035 1.979.316 3.947.837 5.857l-4.55-.785a14.826 14.826 0 01-1.082-5.072zm1.082-6.138l4.55-.785a23.863 23.863 0 00-.837 5.857H1.08a14.85 14.85 0 011.082-5.072zm14.371-1.832c1.916.024 3.828.199 5.717.522l1.883.325c.578 1.968.89 4.005.925 6.056h-8.525zm5.9-.529a37.753 37.753 0 00-5.899-.537v-6.4c3.058.294 5.714 3.093 7.219 7.167zm-6.966-.537a37.764 37.764 0 00-5.899.537l-1.32.228c1.505-4.075 4.161-6.876 7.219-7.168zM9.75 9.085a36.648 36.648 0 015.717-.522v6.903H6.942c.036-2.051.347-4.088.925-6.056zm-2.809 7.448h8.525v6.903a36.648 36.648 0 01-5.717-.522l-1.883-.325a22.878 22.878 0 01-.925-6.056zm2.626 7.433c1.949.334 3.922.514 5.899.54v6.4c-3.058-.294-5.714-3.093-7.219-7.168zm6.966.54a38.011 38.011 0 005.899-.54l1.32-.228c-1.505 4.075-4.161 6.876-7.219 7.168zm5.717-1.591a36.648 36.648 0 01-5.717.522v-6.903h8.525a22.918 22.918 0 01-.925 6.056zm3.875-7.448a23.863 23.863 0 00-.837-5.857l4.55.785a14.826 14.826 0 011.082 5.072zm3.173-6.248l-4.362-.753a14.706 14.706 0 00-4.243-6.64 15.002 15.002 0 018.605 7.393zM11.307 1.827a14.706 14.706 0 00-4.243 6.64l-4.362.753a15.006 15.006 0 018.605-7.393zM2.702 22.781l4.362.753a14.706 14.706 0 004.243 6.64 15.002 15.002 0 01-8.605-7.393zm17.991 7.392a14.706 14.706 0 004.243-6.64l4.362-.753a15.006 15.006 0 01-8.605 7.393z"/></symbol><symbol id="power" viewBox="0 0 32 32"><path d="M16 0C7.189 0 0 7.191 0 16c0 8.811 7.191 16 16 16 8.811 0 16-7.191 16-16 0-8.811-7.191-16-16-16zm0 30.125C8.211 30.125 1.875 23.789 1.875 16S8.211 1.875 16 1.875 30.125 8.211 30.125 16 23.789 30.125 16 30.125z"/><path d="M15.063 7.563h1.875v9.375h-1.875z"/><path d="M20.219 8.692l-.939 1.623A6.588 6.588 0 0122.562 16c0 3.619-2.944 6.563-6.563 6.563S9.436 19.619 9.436 16a6.588 6.588 0 013.282-5.685l-.939-1.623A8.468 8.468 0 007.561 16c0 4.652 3.785 8.438 8.438 8.438s8.438-3.785 8.438-8.438a8.468 8.468 0 00-4.218-7.308z"/></symbol><symbol id="settings" viewBox="0 0 32 32"><path d="M17.004 32h-2.008a2.95 2.95 0 01-2.946-2.946v-.679a12.913 12.913 0 01-2.006-.833l-.482.482a2.947 2.947 0 01-4.167 0l-1.419-1.419a2.947 2.947 0 010-4.167l.481-.481a12.913 12.913 0 01-.833-2.006h-.679a2.95 2.95 0 01-2.946-2.946v-2.008a2.95 2.95 0 012.946-2.946h.679c.221-.691.499-1.361.833-2.006l-.482-.481a2.947 2.947 0 010-4.167l1.42-1.42a2.947 2.947 0 014.167 0l.481.481a13.053 13.053 0 012.006-.833v-.679A2.95 2.95 0 0114.995 0h2.008a2.95 2.95 0 012.946 2.946v.679c.691.221 1.361.499 2.006.833l.482-.482a2.947 2.947 0 014.167 0l1.419 1.419a2.947 2.947 0 010 4.167l-.481.481c.334.645.612 1.315.833 2.006h.679A2.95 2.95 0 0132 14.995v2.008a2.95 2.95 0 01-2.946 2.946h-.679a12.913 12.913 0 01-.833 2.006l.482.482a2.947 2.947 0 010 4.167l-1.42 1.419a2.945 2.945 0 01-4.166 0l-.481-.481c-.645.334-1.316.612-2.006.833v.679A2.95 2.95 0 0117.005 32zm-6.647-6.427c.895.53 1.859.93 2.864 1.189.414.107.703.48.703.908v1.384c0 .59.48 1.071 1.071 1.071h2.008c.59 0 1.071-.48 1.071-1.071V27.67c0-.428.289-.801.703-.908a11.05 11.05 0 002.864-1.189.937.937 0 011.14.144l.98.981a1.07 1.07 0 001.514 0l1.42-1.42a1.07 1.07 0 000-1.514l-.981-.981a.937.937 0 01-.144-1.14c.53-.895.93-1.859 1.189-2.864a.937.937 0 01.908-.703h1.384c.59 0 1.071-.48 1.071-1.071v-2.008c0-.59-.48-1.071-1.071-1.071h-1.384a.937.937 0 01-.908-.703 11.05 11.05 0 00-1.189-2.864.937.937 0 01.144-1.14l.981-.981a1.07 1.07 0 000-1.514l-1.42-1.42a1.07 1.07 0 00-1.514 0l-.981.981a.937.937 0 01-1.14.144c-.895-.53-1.859-.93-2.864-1.189a.937.937 0 01-.703-.908V2.948c0-.59-.48-1.071-1.071-1.071h-2.008c-.59 0-1.071.48-1.071 1.071v1.384a.937.937 0 01-.703.908 11.05 11.05 0 00-2.864 1.189.937.937 0 01-1.14-.144l-.98-.981a1.07 1.07 0 00-1.514 0l-1.42 1.42a1.07 1.07 0 000 1.514l.981.981a.937.937 0 01.144 1.14c-.53.895-.93 1.859-1.189 2.864a.937.937 0 01-.908.703H2.946c-.59 0-1.071.48-1.071 1.071v2.008c0 .59.48 1.071 1.071 1.071H4.33c.428 0 .801.289.908.703a11.015 11.015 0 001.189 2.864.937.937 0 01-.144 1.14l-.981.981a1.07 1.07 0 000 1.514l1.42 1.42a1.07 1.07 0 001.514 0l.981-.981c.223-.223.687-.412 1.14-.144z"/><path d="M16 22.962c-3.839 0-6.963-3.123-6.963-6.963S12.16 9.036 16 9.036s6.962 3.123 6.962 6.963-3.123 6.963-6.963 6.963zm0-12.05c-2.805 0-5.088 2.282-5.088 5.088s2.282 5.087 5.088 5.087 5.087-2.282 5.087-5.088-2.282-5.088-5.088-5.088z"/></symbol><symbol id="add-to-cart" viewBox="0 0 32 32"><path d="M31.12 6.072c-.593-.678-1.439-1.051-2.381-1.051h-7.112V.938A.938.938 0 0020.689 0h-5.021a.938.938 0 00-.938.938v4.083H5.96l-.229-1.719C5.484 1.45 4.195 0 2.796 0H1.122a.938.938 0 000 1.876h1.674c.301 0 .938.636 1.076 1.675l2.684 20.127c.118.887.574 1.718 1.283 2.339a3.87 3.87 0 001.799.895 3.429 3.429 0 00-.416 1.641c0 1.901 1.547 3.448 3.448 3.448s3.448-1.547 3.448-3.448c0-.566-.138-1.101-.381-1.573h4.913a3.425 3.425 0 00-.381 1.573c0 1.901 1.547 3.448 3.448 3.448s3.448-1.547 3.448-3.448c0-.566-.138-1.101-.381-1.573h2.456a.938.938 0 000-1.876H10.328c-.916 0-1.792-.767-1.913-1.675l-.196-1.471H26.73c.895 0 1.779-.342 2.488-.963s1.165-1.452 1.284-2.339l1.344-10.085c.125-.934-.134-1.822-.727-2.499zm-16.874 22.48c0 .867-.706 1.573-1.573 1.573s-1.573-.706-1.573-1.573.706-1.573 1.573-1.573 1.573.706 1.573 1.573zm11.046 0c0 .867-.706 1.573-1.573 1.573s-1.573-.706-1.573-1.573.706-1.573 1.573-1.573 1.573.706 1.573 1.573zM16.607 1.875h3.146v9.104c0 .518.42.938.938.938h.331l-2.785 2.763-2.785-2.763h.219c.518 0 .938-.42.938-.938zm13.382 6.448l-1.344 10.086c-.121.908-.997 1.675-1.913 1.675H7.971L6.213 6.896h8.52v3.146h-1.557a.938.938 0 00-.66 1.603l5.061 5.021a.935.935 0 001.32 0l5.061-5.021a.939.939 0 00-.66-1.603h-1.669V6.896h7.112c.394 0 .738.146.97.411s.331.626.279 1.016z"/></symbol><symbol id="clock" viewBox="0 0 32 32"><path d="M16 0C7.178 0 0 7.178 0 16s7.178 16 16 16 16-7.178 16-16S24.822 0 16 0zm0 30C8.28 30 2 23.72 2 16S8.28 2 16 2s14 6.28 14 14-6.28 14-14 14z"/><path d="M17 6h-2v10.414l6.293 6.293 1.414-1.414L17 15.586z"/></symbol><symbol id="email" viewBox="0 0 32 32"><path d="M30.4 3.733H1.6a1.6 1.6 0 00-1.6 1.6v21.333a1.6 1.6 0 001.6 1.6h28.8a1.6 1.6 0 001.6-1.6V5.333a1.6 1.6 0 00-1.6-1.6zm.533 22.934a.533.533 0 01-.533.533H1.6a.533.533 0 01-.533-.533V5.334c0-.295.239-.533.533-.533h28.8c.295 0 .533.239.533.533v21.333z"/><path d="M29.38 5.869a.533.533 0 00-.389.123L16.687 16.328a1.066 1.066 0 01-1.373 0L3.01 5.992a.535.535 0 00-.686.817l12.304 10.335a2.13 2.13 0 002.745 0L29.677 6.809a.533.533 0 00-.297-.94zM10.258 17.071a.531.531 0 00-.514.166l-7.467 8a.533.533 0 10.779.727l7.467-8a.533.533 0 00-.265-.893zm11.999.165a.535.535 0 00-.909.203.53.53 0 00.13.524l7.467 8a.533.533 0 00.779-.728l-7.467-8z"/></symbol><symbol id="fast-forward" viewBox="0 0 32 32"><path d="M31.761 15.541L16.603 4.874a.56.56 0 00-.885.459v9.98L.883 4.88a.563.563 0 00-.885.46v21.319a.564.564 0 00.562.561.57.57 0 00.323-.102l14.835-10.432v9.98a.564.564 0 00.562.562.56.56 0 00.323-.103l15.158-10.667a.558.558 0 000-.918zM1.123 25.579V6.422L14.744 16 1.123 25.579zm15.719.006V6.415L30.463 16l-13.621 9.585z"/></symbol><symbol id="heart" viewBox="0 0 32 32"><path d="M16 30.22c-.456 0-.895-.165-1.237-.465a374.562 374.562 0 00-3.639-3.13l-.006-.005c-3.224-2.747-6.008-5.12-7.945-7.457-2.165-2.613-3.174-5.09-3.174-7.796 0-2.629.902-5.055 2.539-6.831C4.195 2.739 6.467 1.75 8.939 1.75c1.847 0 3.539.584 5.028 1.736A10.288 10.288 0 0116 5.609c.6-.83 1.281-1.541 2.033-2.123 1.489-1.152 3.181-1.736 5.028-1.736 2.471 0 4.744.99 6.401 2.786C31.099 6.312 32 8.737 32 11.367c0 2.706-1.008 5.184-3.174 7.796-1.937 2.337-4.721 4.71-7.944 7.457-1.102.938-2.35 2.002-3.645 3.136A1.88 1.88 0 0116 30.22zM8.939 3.624c-1.942 0-3.725.775-5.023 2.182-1.317 1.428-2.042 3.403-2.042 5.56 0 2.276.846 4.312 2.743 6.6 1.833 2.212 4.56 4.536 7.717 7.227l.006.005c1.104.941 2.355 2.007 3.657 3.146a430.966 430.966 0 013.669-3.151c3.157-2.691 5.884-5.014 7.717-7.226 1.896-2.289 2.742-4.324 2.742-6.6 0-2.157-.725-4.132-2.042-5.56-1.297-1.407-3.081-2.182-5.023-2.182-1.422 0-2.728.452-3.881 1.344-1.028.795-1.743 1.8-2.163 2.503-.216.362-.596.577-1.016.577s-.801-.216-1.016-.577c-.419-.703-1.135-1.708-2.163-2.503-1.153-.892-2.459-1.344-3.881-1.344z"/></symbol><symbol id="phone-call" viewBox="0 0 32 32"><path d="M31.978 26.338a2.457 2.457 0 00-1.218-1.819l-7.895-4.545a2.476 2.476 0 00-2.983.395l-1.555 1.555a1.14 1.14 0 01-1.522.085c-1.226-.986-2.433-2.072-3.587-3.227s-2.24-2.361-3.227-3.587a1.14 1.14 0 01.085-1.522l1.555-1.555a2.479 2.479 0 00.395-2.983L7.481 1.24C7.094.568 6.431.124 5.662.022S4.137.177 3.589.725L1.246 3.068c-1.635 1.635-1.662 4.627-.074 8.423 1.527 3.65 4.375 7.669 8.022 11.315s7.665 6.495 11.315 8.022c1.869.781 3.542 1.172 4.955 1.172 1.457 0 2.638-.416 3.468-1.246l2.343-2.343a2.455 2.455 0 00.703-2.073zm-9.629-5.466l7.895 4.545c.39.225.648.61.707 1.056.05.375-.048.744-.268 1.041l-10.492-5.988.426-.426a1.44 1.44 0 011.732-.229zM5.526 1.05c.447.059.832.317 1.056.707l4.545 7.895a1.439 1.439 0 01-.229 1.732l-.391.391L4.486 1.318a1.419 1.419 0 011.039-.268zm22.673 28.971c-1.299 1.299-3.956 1.245-7.29-.149-3.529-1.476-7.429-4.245-10.982-7.798s-6.323-7.453-7.798-10.982C.735 7.758.68 5.101 1.98 3.802l1.739-1.739 6.03 10.473-.404.404a2.175 2.175 0 00-.16 2.906c1.01 1.255 2.12 2.49 3.301 3.67s2.416 2.291 3.671 3.301a2.175 2.175 0 002.906-.16l.369-.369 10.506 5.996-1.738 1.738z"/></symbol><symbol id="right-arrow" viewBox="0 0 32 32"><path d="M18.689 6.276a1 1 0 00-1.378 1.449l7.671 7.276H5a1 1 0 000 2h19.95l-7.639 7.276a1 1 0 101.378 1.448l8.725-8.31a1.996 1.996 0 00-.018-2.845z"/></symbol></defs></svg>