<svg viewBox="0 0 512 512" xmlns="http://www.w3.org/2000/svg"><path d="M256 0C115.031 0 0 115.05 0 256c0 140.969 115.05 256 256 256 140.969 0 256-115.05 256-256C512 115.027 396.95 0 256 0zm0 482C131.383 482 30 380.617 30 256S131.383 30 256 30s226 101.383 226 226-101.383 226-226 226zm0 0"/><path d="M241 121h30v150h-30zm0 0"/><path d="M323.512 139.07l-15.024 25.97C340.878 183.772 361 218.628 361 256c0 57.898-47.102 105-105 105s-105-47.102-105-105c0-37.371 20.121-72.227 52.512-90.96l-15.024-25.97C146.86 163.152 121 207.957 121 256c0 74.438 60.563 135 135 135s135-60.563 135-135c0-48.043-25.86-92.848-67.488-116.93zm0 0"/></svg>